 <svg xmlns="http://www.w3.org/2000/svg" 
  :width="size"
    :height="size"
    viewBox="0 0 60 60"
    fill="none"
    :aria-labelledby="ariaId"
    >
    <title :id="ariaId">Handshake logo</title>
<path d="M12.9678 32.5321C13.212 32.9374 13.3739 33.3869 13.4442 33.8548C13.5145 34.3227 13.492 34.7999 13.3777 35.2591C13.2635 35.7183 13.0598 36.1504 12.7784 36.5309C12.497 36.9113 12.1434 37.2325 11.7378 37.4761L7.45378 40.1521C6.63886 40.6479 5.66048 40.8 4.7335 40.575C3.80652 40.35 3.00674 39.7663 2.50978 38.9521V38.9521C2.26559 38.5468 2.10369 38.0973 2.03335 37.6294C1.96301 37.1615 1.9856 36.6843 2.09984 36.2251C2.21408 35.7659 2.41772 35.3338 2.69911 34.9534C2.98051 34.5729 3.33414 34.2517 3.73978 34.0081L8.02378 31.3321C8.8387 30.8363 9.81708 30.6842 10.7441 30.9092C11.671 31.1342 12.4708 31.7179 12.9678 32.5321Z" stroke="#A2A1A6" stroke-width="2.4" stroke-linecap="round" stroke-linejoin="round"/>
<path d="M41.3451 41.2859C42.1173 41.7221 42.7119 42.4155 43.0252 43.2453C43.3385 44.075 43.3506 44.9884 43.0595 45.8261C42.7683 46.6639 42.1923 47.3728 41.4319 47.8294C40.6716 48.2859 39.775 48.4611 38.8987 48.3243" stroke="#A2A1A6" stroke-width="2.4" stroke-linecap="round" stroke-linejoin="round"/>
<path d="M30.4945 26.484L49.0945 36.972C49.5278 37.2159 49.9089 37.5427 50.216 37.9338C50.523 38.325 50.75 38.7728 50.884 39.2516C51.018 39.7305 51.0564 40.2311 50.9969 40.7248C50.9374 41.2185 50.7813 41.6956 50.5375 42.129C50.2936 42.5624 49.9668 42.9434 49.5756 43.2505C49.1845 43.5575 48.7367 43.7846 48.2578 43.9185C47.7789 44.0525 47.2784 44.0909 46.7847 44.0314C46.291 43.972 45.8138 43.8159 45.3805 43.572L26.7805 33.09" stroke="#A2A1A6" stroke-width="2.4" stroke-linecap="round" stroke-linejoin="round"/>
<path d="M41.6594 24.0001L48.7634 28.1281C49.1967 28.3716 49.5779 28.698 49.8851 29.0888C50.1923 29.4796 50.4195 29.9271 50.5538 30.4056C50.6881 30.8842 50.7268 31.3846 50.6677 31.8781C50.6086 32.3717 50.4529 32.8488 50.2094 33.2821C49.9659 33.7155 49.6395 34.0966 49.2487 34.4038C48.8579 34.7111 48.4105 34.9383 47.9319 35.0725C47.4533 35.2068 46.9529 35.2455 46.4594 35.1864C45.9658 35.1273 45.4888 34.9716 45.0554 34.7281" stroke="#A2A1A6" stroke-width="2.4" stroke-linecap="round" stroke-linejoin="round"/>
<path d="M1.69145 29.664C0.637031 25.2604 1.29096 20.6207 3.52145 16.6801" stroke="#A2A1A6" stroke-width="2.4" stroke-linecap="round" stroke-linejoin="round"/>
<path d="M3.52219 16.6801C8.47219 7.8961 17.3222 5.0101 26.4482 6.7321" stroke="#A2A1A6" stroke-width="2.4" stroke-linecap="round" stroke-linejoin="round"/>
<path d="M51.1986 39.684C54.7595 37.1156 57.2589 33.3342 58.2263 29.0516C59.1938 24.7689 58.5626 20.2804 56.4515 16.4306C54.3405 12.5809 50.8951 9.63549 46.764 8.14874C42.6328 6.66199 38.1007 6.73643 34.0206 8.35805L19.5546 16.266C14.9526 18.786 21.9546 24.066 27.6366 20.862L33.2526 17.694C34.7522 18.5753 36.4373 19.0935 38.173 19.207C39.9087 19.3206 41.6469 19.0264 43.2486 18.348" stroke="#A2A1A6" stroke-width="2.4" stroke-linecap="round" stroke-linejoin="round"/>
<path d="M33.3968 45.6001C33.6407 46.0058 33.8023 46.4555 33.8722 46.9237C33.9421 47.3919 33.9189 47.8692 33.8041 48.3284C33.6893 48.7877 33.4851 49.2197 33.2031 49.5999C32.9211 49.9801 32.5669 50.301 32.1608 50.5441L27.8768 53.2201C27.0619 53.7159 26.0835 53.868 25.1565 53.643C24.2295 53.418 23.4297 52.8343 22.9328 52.0201V52.0201C22.6886 51.6148 22.5267 51.1653 22.4564 50.6974C22.386 50.2295 22.4086 49.7523 22.5228 49.2931C22.6371 48.8339 22.8407 48.4018 23.1221 48.0214C23.4035 47.6409 23.7571 47.3197 24.1628 47.0761L28.4528 44.4001C29.2677 43.9043 30.2461 43.7522 31.1731 43.9772C32.1 44.2022 32.8998 44.7859 33.3968 45.6001V45.6001Z" stroke="#A2A1A6" stroke-width="2.4" stroke-linecap="round" stroke-linejoin="round"/>
<path d="M25.9335 41.6339C26.4274 42.4483 26.5784 43.4253 26.3535 44.3508C26.1286 45.2763 25.546 46.075 24.7335 46.5719L18.9735 50.1719C18.1586 50.6677 17.1802 50.8198 16.2532 50.5948C15.3262 50.3698 14.5264 49.7861 14.0295 48.9719V48.9719C13.5382 48.1539 13.3918 47.1743 13.6224 46.2483C13.8531 45.3224 14.4419 44.5259 15.2595 44.0339L21.0195 40.4339C21.4251 40.19 21.8749 40.0284 22.3431 39.9585C22.8112 39.8886 23.2886 39.9117 23.7478 40.0266C24.207 40.1414 24.6391 40.3456 25.0193 40.6276C25.3995 40.9096 25.7203 41.2638 25.9635 41.6699L25.9335 41.6339Z" stroke="#A2A1A6" stroke-width="2.4" stroke-linecap="round" stroke-linejoin="round"/>
<path d="M8.39984 39.6842L14.3998 35.8502C15.2148 35.3544 16.1931 35.2023 17.1201 35.4273C18.0471 35.6523 18.8469 36.236 19.3438 37.0502C19.5874 37.4579 19.748 37.9097 19.8162 38.3797C19.8844 38.8497 19.8589 39.3286 19.7412 39.7887C19.6235 40.2488 19.416 40.6811 19.1305 41.0606C18.845 41.4402 18.4873 41.7595 18.0778 42.0002L12.3478 45.6842C11.9525 45.9448 11.5096 46.1248 11.0446 46.214C10.5795 46.3032 10.1014 46.2997 9.63773 46.2039C9.17401 46.108 8.73377 45.9216 8.3422 45.6554C7.95064 45.3891 7.61545 45.0482 7.35584 44.6522V44.6522C6.83824 43.8541 6.6575 42.8837 6.85312 41.9528C7.04873 41.022 7.6048 40.2064 8.39984 39.6842V39.6842Z" stroke="#A2A1A6" stroke-width="2.4" stroke-linecap="round" stroke-linejoin="round"/>
</svg>