<svg xmlns="http://www.w3.org/2000/svg" viewBox="0 0 46 46" enable-background="new 0 0 46 46"><path d="m46 23c0-1.982-1.464-3.616-3.364-3.912-.51-2.561-1.53-5.02-2.987-7.202.498-.677.779-1.485.779-2.341 0-1.062-.414-2.059-1.164-2.809-1.402-1.403-3.595-1.522-5.148-.384-2.181-1.458-4.642-2.478-7.204-2.988-.297-1.9-1.93-3.364-3.912-3.364s-3.615 1.464-3.911 3.364c-2.562.51-5.02 1.53-7.204 2.988-1.553-1.138-3.746-1.019-5.148.384-.75.75-1.164 1.748-1.164 2.809 0 .856.281 1.664.779 2.341-1.457 2.181-2.477 4.641-2.987 7.202-1.901.296-3.365 1.93-3.365 3.912s1.464 3.616 3.364 3.912c.51 2.561 1.53 5.02 2.987 7.202-.498.677-.779 1.485-.779 2.341 0 1.062.414 2.059 1.164 2.809.75.751 1.748 1.165 2.81 1.165.856 0 1.664-.281 2.341-.779 2.181 1.457 4.641 2.477 7.202 2.987.295 1.9 1.929 3.363 3.911 3.363s3.615-1.463 3.911-3.364c2.561-.51 5.02-1.53 7.202-2.988.677.498 1.484.779 2.341.779 1.062 0 2.06-.414 2.81-1.164.75-.75 1.164-1.748 1.164-2.81 0-.856-.281-1.664-.779-2.341 1.457-2.181 2.477-4.641 2.987-7.202 1.9-.294 3.364-1.928 3.364-3.91m-2 0c0 1.088-.885 1.973-1.973 1.973-.02 0-.039-.005-.059-.006-.006-.001-.01-.005-.016-.006-.01-.001-.018.003-.028.001-1.04-.054-1.871-.91-1.871-1.963 0-1.01.765-1.834 1.743-1.95.052 0 .104-.004.156-.012.006-.001.01-.005.016-.006.02-.001.039-.006.059-.006 1.088.002 1.973.887 1.973 1.975m-10.356 10.645c-1.201 1.202-1.458 2.983-.796 4.447-1.871 1.222-3.963 2.09-6.14 2.548-.565-1.506-2.01-2.586-3.709-2.586s-3.144 1.08-3.709 2.586c-2.176-.458-4.266-1.325-6.136-2.545.232-.51.365-1.063.365-1.64 0-1.061-.413-2.059-1.164-2.809-1.201-1.202-2.984-1.46-4.448-.797-1.221-1.87-2.089-3.962-2.547-6.138 1.506-.565 2.586-2.01 2.586-3.71s-1.08-3.144-2.586-3.71c.458-2.176 1.326-4.268 2.547-6.139.52.236 1.077.365 1.638.365 1.018 0 2.035-.387 2.81-1.162.751-.75 1.164-1.748 1.164-2.809 0-.577-.132-1.131-.364-1.641 1.87-1.221 3.961-2.088 6.136-2.545.565 1.506 2.01 2.586 3.709 2.586s3.144-1.08 3.709-2.586c2.177.457 4.269 1.326 6.14 2.548-.662 1.464-.405 3.245.796 4.447.774.775 1.792 1.162 2.81 1.162.561 0 1.118-.13 1.638-.365 1.222 1.87 2.09 3.962 2.547 6.139-1.506.565-2.586 2.01-2.586 3.709s1.08 3.144 2.586 3.709c-.458 2.176-1.326 4.268-2.547 6.139-1.465-.663-3.247-.404-4.449.797m4.206-25.494c.373.373.578.868.578 1.395s-.205 1.022-.578 1.395c-.015.015-.034.026-.05.041-.005.003-.01.003-.015.007-.008.006-.011.015-.019.021-.774.693-1.964.675-2.708-.068-.744-.745-.761-1.938-.064-2.712.005-.006.012-.008.017-.014.003-.005.004-.01.007-.015.015-.016.025-.034.04-.049.385-.385.89-.577 1.396-.577.505-.001 1.01.191 1.396.576m-14.85-6.151c1.088 0 1.973.885 1.973 1.973 0 .022-.006.042-.006.063-.001.004-.004.008-.004.012-.001.008.002.014.001.022-.053 1.042-.909 1.876-1.964 1.876-1.055 0-1.911-.834-1.963-1.876-.001-.008.002-.014.001-.022-.001-.004-.004-.008-.004-.012-.001-.021-.006-.041-.006-.063-.001-1.088.884-1.973 1.972-1.973m-14.85 6.151c.385-.385.891-.577 1.396-.577s1.01.192 1.396.577c.015.015.025.033.04.048.003.005.004.011.007.016.005.007.014.009.019.016.327.363.512.823.512 1.315 0 .527-.205 1.022-.578 1.395-.744.744-1.934.762-2.708.068-.008-.006-.011-.015-.019-.021-.005-.003-.01-.004-.015-.007-.016-.015-.034-.025-.05-.041-.373-.373-.578-.868-.578-1.395s.205-1.022.578-1.394m-6.15 14.849c0-1.088.885-1.973 1.973-1.973.02 0 .039.005.059.006.006.001.01.005.016.006.052.007.103.011.154.011 0 0 0 0 .001 0 .979.116 1.743.941 1.743 1.95 0 1.053-.832 1.908-1.872 1.963-.01.001-.018-.003-.028-.001-.006.001-.01.005-.016.006-.02.001-.039.006-.059.006-1.086-.001-1.971-.886-1.971-1.974m6.15 14.849c-.373-.373-.578-.868-.578-1.395s.205-1.022.578-1.395c.015-.015.032-.025.047-.039.005-.004.012-.005.017-.009.008-.006.011-.015.019-.021.374-.335.841-.509 1.312-.509.505 0 1.01.192 1.396.577.373.373.578.868.578 1.395 0 .49-.184.948-.508 1.31-.007.009-.017.012-.023.021-.004.005-.004.011-.007.016-.014.015-.025.033-.04.048-.746.747-2.045.747-2.791.001m14.85 6.151c-1.088 0-1.973-.885-1.973-1.973 0-.021.005-.04.006-.061.001-.005.004-.008.005-.013.001-.008-.002-.015-.001-.022.052-1.042.908-1.877 1.963-1.877s1.911.835 1.963 1.877c.001.008-.002.015-.001.022.001.005.004.008.005.013.001.021.006.04.006.061 0 1.088-.885 1.973-1.973 1.973m14.85-6.151c-.746.746-2.045.746-2.791 0-.015-.015-.025-.033-.04-.049-.003-.005-.003-.01-.007-.015-.006-.008-.015-.011-.021-.019-.693-.773-.675-1.964.068-2.707.385-.385.891-.577 1.396-.577.471 0 .938.174 1.312.509.008.006.011.015.019.021.005.004.012.005.017.009.015.014.033.024.047.039.373.373.578.868.578 1.395s-.205 1.022-.578 1.394"/><path d="m28.21 17.86l-7.605 8.197-2.885-2.6c-.408-.369-1.043-.338-1.412.073-.369.41-.337 1.042.074 1.412l3.617 3.259c.063.057.137.09.21.128.036.019.066.049.104.063.115.044.235.066.356.066.135 0 .27-.028.396-.082.044-.019.077-.058.118-.083.076-.047.156-.086.219-.154l8.275-8.919c.375-.405.352-1.038-.054-1.413-.404-.375-1.037-.353-1.413.053"/></svg>