<?xml version="1.0" encoding="UTF-8"?><svg id="Layer_2" xmlns="http://www.w3.org/2000/svg" viewBox="0 0 86.09 96"><defs><style>.cls-1{fill:none;stroke:#171321;stroke-miterlimit:10;stroke-width:2px;}</style></defs><g id="icons"><g><ellipse class="cls-1" cx="43.05" cy="48" rx="47" ry="21" transform="translate(-18.23 27.95) rotate(-30)"/><path class="cls-1" d="M32.55,20.71c6.67,1.93,13.86,4.98,21,9.1,22.48,12.98,36,31.64,30.2,41.69s-28.72,7.67-51.2-5.31S-3.46,34.54,2.34,24.5c2.59-4.49,8.61-6.5,16.47-6.19"/><path class="cls-1" d="M62.06,68c-3.36,15.96-10.61,27-19.01,27-11.6,0-21-21.04-21-47S31.45,1,43.05,1s21,21.04,21,47c0,1.19-.02,2.37-.06,3.54"/></g><g><path class="cls-1" d="M31.57,49.97c2.9,4.67,6.97,7.58,11.47,7.58,5.4,0,10.17-4.17,13.05-10.55-2.88-6.38-7.65-10.55-13.05-10.55s-10.17,4.17-13.05,10.55"/><path class="cls-1" d="M48.82,46c.06,.33,.09,.66,.09,1,0,3.22-2.61,5.83-5.83,5.83s-5.83-2.61-5.83-5.83,2.61-5.83,5.83-5.83c.36,0,.71,.03,1.05,.1"/><circle class="cls-1" cx="47.93" cy="42.14" r="3.75"/></g></g></svg>
