<svg id="Layer_1" data-name="Layer 1" xmlns="http://www.w3.org/2000/svg" viewBox="0 0 46 46"><path d="M21,27.52a1,1,0,0,0,.7-.29l7.05-7a1,1,0,0,0-1.41-1.41L21,25.11,18.7,22.86a1,1,0,0,0-1.41,0,1,1,0,0,0,0,1.41l3,3A1,1,0,0,0,21,27.52Z"/><path d="M39.9,29.58a1,1,0,0,0-1.3.55A24.84,24.84,0,0,1,23,44C14.4,41.22,7.84,34.33,6.26,26.33a1,1,0,0,0,0-.1,3.52,3.52,0,1,0-1.92.21.88.88,0,0,0,0,.28C6,35.52,13.26,43.07,22.71,46a1.07,1.07,0,0,0,.58,0c7.88-2.41,14.29-8,17.16-15.08A1,1,0,0,0,39.9,29.58ZM3.37,23a1.5,1.5,0,1,1,1.5,1.5A1.5,1.5,0,0,1,3.37,23Z"/><path d="M42.13,19.66v-13a1,1,0,0,0-1.34-.93,14.54,14.54,0,0,1-17-5.26,1,1,0,0,0-1.62,0,14.54,14.54,0,0,1-17,5.26,1,1,0,0,0-1.34.93v8.64a1,1,0,0,0,2,0V8A16.46,16.46,0,0,0,23,2.63,16.46,16.46,0,0,0,40.13,8V19.66a3.5,3.5,0,1,0,2,0Zm-1,4.84a1.5,1.5,0,1,1,1.5-1.5A1.5,1.5,0,0,1,41.13,24.5Z"/></svg>