<?xml version="1.0" encoding="UTF-8"?><svg id="Layer_2" xmlns="http://www.w3.org/2000/svg" viewBox="0 0 96 92.73"><defs><style>.cls-1{fill:none;stroke:#171321;stroke-miterlimit:10;stroke-width:2px;}</style></defs><g id="icons"><g><path class="cls-1" d="M46,91.73h-7.38l-1.64-11.23c-2.87-.79-5.58-1.92-8.11-3.36l-9.1,6.78-10.95-10.95,6.78-9.1c-1.44-2.53-2.58-5.25-3.37-8.12l-11.23-1.64v-15.49l11.22-1.64c.79-2.87,1.92-5.59,3.36-8.12l-6.78-9.1,10.95-10.95,9.1,6.78c2.53-1.44,5.25-2.58,8.12-3.37l1.64-11.23h7.38V91.73Z"/><path class="cls-1" d="M46,61.28c-8.08-.2-14.57-6.79-14.57-14.92s6.49-14.72,14.57-14.92"/><rect class="cls-1" x="59" y="6.77" width="12" height="12"/><rect class="cls-1" x="59" y="74.77" width="12" height="12"/><rect class="cls-1" x="58" y="40.77" width="12" height="12"/><rect class="cls-1" x="83" y="22.77" width="12" height="12"/><rect class="cls-1" x="83" y="58.77" width="12" height="12"/></g></g></svg>
